<?xml version="1.0" encoding="UTF-8" standalone="no"?><svg xmlns="http://www.w3.org/2000/svg" xmlns:xlink="http://www.w3.org/1999/xlink" contentScriptType="application/ecmascript" contentStyleType="text/css" height="68px" preserveAspectRatio="none" style="width:446px;height:68px;" version="1.1" viewBox="0 0 446 68" width="446px" zoomAndPan="magnify"><defs/><g><ellipse cx="296.8492" cy="42.742" fill="#F8F8F8" rx="17.8492" ry="13.242" style="stroke: #383838; stroke-width: 0.5;"/><text fill="#000000" font-family="Tahoma, sans-serif" font-size="12" lengthAdjust="spacingAndGlyphs" textLength="21" x="286.3492" y="46.4842">App</text><ellipse cx="47.1838" cy="42.742" fill="#F8F8F8" rx="41.1838" ry="13.242" style="stroke: #383838; stroke-width: 0.5;"/><text fill="#000000" font-family="Tahoma, sans-serif" font-size="12" font-weight="bold" lengthAdjust="spacingAndGlyphs" textLength="54" x="20.1838" y="46.4842">App.test</text><ellipse cx="206.7601" cy="42.552" fill="#F8F8F8" rx="60.7601" ry="14.552" style="stroke: #383838; stroke-width: 0.5;"/><text fill="#000000" font-family="Tahoma, sans-serif" font-size="12" lengthAdjust="spacingAndGlyphs" textLength="90" x="161.7601" y="46.2942">reportWebVitals</text><ellipse cx="380.771" cy="42.3542" fill="#F8F8F8" rx="54.771" ry="13.3542" style="stroke: #383838; stroke-width: 0.5;"/><text fill="#000000" font-family="Tahoma, sans-serif" font-size="12" font-weight="bold" lengthAdjust="spacingAndGlyphs" textLength="74" x="343.771" y="46.0964">setupTests</text><ellipse cx="116.8492" cy="42.742" fill="#F8F8F8" rx="17.8492" ry="13.242" style="stroke: #383838; stroke-width: 0.5;"/><text fill="#000000" font-family="Tahoma, sans-serif" font-size="12" font-weight="bold" lengthAdjust="spacingAndGlyphs" textLength="21" x="106.3492" y="46.4842">src</text><!--MD5=[ade7508b8fd28882668ed72a2a00701f]
link <b>App.test</b> to App--><path d="M65.6457,30.6379 C75.3375,25.1683 87.6159,19.2815 99.5,16.5 C136.067,7.9413 233.483,2.9271 268.5,16.5 C274.452,18.8071 279.923,23.0003 284.445,27.3554 " fill="none" id="&lt;b&gt;App.test&lt;/b&gt;-&gt;App" style="stroke: #000000; stroke-width: 1.0;"/><polygon fill="#000000" points="288.011,31.0139,284.5929,21.7772,284.5208,27.4336,278.8644,27.3615,288.011,31.0139" style="stroke: #000000; stroke-width: 1.0;"/><!--MD5=[f39319d2be27e673ece5aa4b202a2579]
link <b>src</b> to App--><path d="M126.125,31.277 C131.412,25.6852 138.581,19.4917 146.5,16.5 C171.862,6.9188 243.221,6.7018 268.5,16.5 C274.452,18.8071 279.923,23.0003 284.445,27.3554 " fill="none" id="&lt;b&gt;src&lt;/b&gt;-&gt;App" style="stroke: #000000; stroke-width: 1.0;"/><polygon fill="#000000" points="288.011,31.0139,284.5929,21.7772,284.5208,27.4336,278.8644,27.3615,288.011,31.0139" style="stroke: #000000; stroke-width: 1.0;"/><!--MD5=[f1a337901fa5ebf3530ace6eeadcb81b]
link <b>src</b> to reportWebVitals--><path d="M135.281,42.5 C137.056,42.5 138.83,42.5 140.604,42.5 " fill="none" id="&lt;b&gt;src&lt;/b&gt;-&gt;reportWebVitals" style="stroke: #000000; stroke-width: 1.0;"/><polygon fill="#000000" points="145.927,42.5,136.927,38.5,140.927,42.5,136.927,46.5,145.927,42.5" style="stroke: #000000; stroke-width: 1.0;"/><script type="text/plantuml"><![CDATA[MD5=[b6bee9349c3541a4339138b6dec47438]
@startuml

scale max 1920 width
top to bottom direction

skinparam nodesep 11
skinparam ranksep 23
skinparam monochrome true
skinparam shadowing false
skinparam defaultFontName Tahoma
skinparam defaultFontSize 12
skinparam roundCorner 6
skinparam dpi 150
skinparam arrowColor black
skinparam arrowThickness 0.5
skinparam packageTitleAlignment left

skinparam usecase {
  borderThickness 0.5
}

skinparam rectangle {
  borderThickness 0.5
}

skinparam component {
  borderThickness 1
}


(App)
(<b>App.test</b>)
(reportWebVitals)
(<b>setupTests</b>)
(<b>src</b>)


(<b>App.test</b>) -[thickness=1]> (App)
(<b>src</b>) -[thickness=1]> (App)
(<b>src</b>) -[thickness=1]> (reportWebVitals)

@enduml


' View and edit on https://arkit.pro
]]></script></g></svg>