{
  "accessors": [
    {
      "bufferView": 2,
      "componentType": 5126,
      "count": 11146,
      "max": [
        0.18519048392772675,
        0.15689072012901306,
        0.09807111322879791
      ],
      "min": [
        -0.19135867059230804,
        -0.0008777352049946785,
        -0.1331164836883545
      ],
      "type": "VEC3"
    },
    {
      "bufferView": 2,
      "byteOffset": 133752,
      "componentType": 5126,
      "count": 11146,
      "max": [
        0.9998891353607178,
        0.999963641166687,
        0.9999749660491943
      ],
      "min": [
        -0.999956488609314,
        -0.9999998211860657,
        -0.999915599822998
      ],
      "type": "VEC3"
    },
    {
      "bufferView": 3,
      "componentType": 5126,
      "count": 11146,
      "max": [
        0.9999942779541016,
        0.9995464086532593,
        0.9999443888664246,
        -1.0
      ],
      "min": [
        -0.9991992115974426,
        -0.9993089437484741,
        -0.9951583743095398,
        -1.0
      ],
      "type": "VEC4"
    },
    {
      "bufferView": 1,
      "componentType": 5126,
      "count": 11146,
      "max": [
        0.9973811507225037,
        0.998779296875
      ],
      "min": [
        0.001220703125,
        0.001220703125
      ],
      "type": "VEC2"
    },
    {
      "bufferView": 1,
      "byteOffset": 89168,
      "componentType": 5126,
      "count": 11146,
      "max": [
        0.9973811507225037,
        0.998779296875
      ],
      "min": [
        0.001220703125,
        0.001220703125
      ],
      "type": "VEC2"
    },
    {
      "bufferView": 0,
      "componentType": 5125,
      "count": 60792,
      "type": "SCALAR"
    }
  ],
  "asset": {
    "extras": {
      "author": "Loïc Norgeot (https://sketchfab.com/norgeotloic)",
      "license": "CC-BY-4.0 (http://creativecommons.org/licenses/by/4.0/)",
      "source": "https://sketchfab.com/3d-models/eared-seal-statuette-9df3c3a9c9ff4804bbffbb18e6b26ba4",
      "title": "Eared Seal statuette"
    },
    "generator": "Sketchfab-13.28.0",
    "version": "2.0"
  },
  "bufferViews": [
    {
      "buffer": 0,
      "byteLength": 243168,
      "name": "floatBufferViews",
      "target": 34963
    },
    {
      "buffer": 0,
      "byteLength": 178336,
      "byteOffset": 243168,
      "byteStride": 8,
      "name": "floatBufferViews",
      "target": 34962
    },
    {
      "buffer": 0,
      "byteLength": 267504,
      "byteOffset": 421504,
      "byteStride": 12,
      "name": "floatBufferViews",
      "target": 34962
    },
    {
      "buffer": 0,
      "byteLength": 178336,
      "byteOffset": 689008,
      "byteStride": 16,
      "name": "floatBufferViews",
      "target": 34962
    }
  ],
  "buffers": [
    {
      "byteLength": 867344,
      "uri": "scene.bin"
    }
  ],
  "images": [
    {
      "uri": "textures/ot.001_baseColor.jpeg"
    },
    {
      "uri": "textures/ot.001_metallicRoughness.png"
    },
    {
      "uri": "textures/ot.001_normal.png"
    }
  ],
  "materials": [
    {
      "doubleSided": true,
      "name": "ot.001",
      "normalTexture": {
        "index": 2
      },
      "pbrMetallicRoughness": {
        "baseColorTexture": {
          "index": 0
        },
        "metallicFactor": 0.0,
        "metallicRoughnessTexture": {
          "index": 1
        }
      }
    }
  ],
  "meshes": [
    {
      "name": "Object_0",
      "primitives": [
        {
          "attributes": {
            "NORMAL": 1,
            "POSITION": 0,
            "TANGENT": 2,
            "TEXCOORD_0": 3,
            "TEXCOORD_1": 4
          },
          "indices": 5,
          "material": 0,
          "mode": 4
        }
      ]
    }
  ],
  "nodes": [
    {
      "children": [
        1
      ],
      "matrix": [
        1.0,
        0.0,
        0.0,
        0.0,
        0.0,
        2.220446049250313e-16,
        -1.0,
        0.0,
        0.0,
        1.0,
        2.220446049250313e-16,
        0.0,
        0.0,
        0.0,
        0.0,
        1.0
      ],
      "name": "Sketchfab_model"
    },
    {
      "children": [
        2
      ],
      "name": "root"
    },
    {
      "children": [
        3
      ],
      "matrix": [
        1.0,
        0.0,
        0.0,
        0.0,
        0.0,
        2.220446049250313e-16,
        1.0,
        0.0,
        0.0,
        -1.0,
        2.220446049250313e-16,
        0.0,
        0.0,
        0.0,
        0.0,
        1.0
      ],
      "name": "GLTF_SceneRootNode"
    },
    {
      "children": [
        4
      ],
      "name": "ot.001_0"
    },
    {
      "mesh": 0,
      "name": "Object_4"
    }
  ],
  "samplers": [
    {
      "magFilter": 9729,
      "minFilter": 9987,
      "wrapS": 10497,
      "wrapT": 10497
    }
  ],
  "scene": 0,
  "scenes": [
    {
      "name": "Sketchfab_Scene",
      "nodes": [
        0
      ]
    }
  ],
  "textures": [
    {
      "sampler": 0,
      "source": 0
    },
    {
      "sampler": 0,
      "source": 1
    },
    {
      "sampler": 0,
      "source": 2
    }
  ]
}
